<svg xmlns="http://www.w3.org/2000/svg" viewBox="0 0 2748 2618">
  <g fill="#e5dcc3">
    <path d="M374,2236.02l118.6-376.18h92.22l118.6,376.18h-64.79l-107.63-337.51h14.11l-106.32,337.51h-64.79ZM440.09,2154.52v-58.78h197.49v58.78h-197.49Z"/>
    <path d="M781.78,2236.02v-376.18h62.96v317.14h166.15v59.04h-229.1Z"/>
    <path d="M1086.64,2236.02v-376.18h62.96v317.14h166.15v59.04h-229.1Z"/>
    <path d="M1429.12,2236.02l-118.6-376.18h64.79l99.27,315.05,100.58-315.05h64.79l-118.6,376.18h-92.22Z"/>
    <path d="M1642.55,2236.02l118.6-376.18h92.22l118.6,376.18h-64.79l-107.63-337.51h14.11l-106.32,337.51h-64.79ZM1708.64,2154.52v-58.78h197.49v58.78h-197.49Z"/>
    <path d="M2193.75,2243.86c-37.62,0-69.84-8.23-96.66-24.69-26.82-16.46-47.41-39.4-61.78-68.84-14.37-29.43-21.55-63.57-21.55-102.4s7.18-72.97,21.55-102.4c14.37-29.43,34.96-52.38,61.78-68.84,26.82-16.46,59.04-24.69,96.66-24.69s69.88,8.23,96.79,24.69c26.91,16.46,47.54,39.41,61.91,68.84,14.37,29.43,21.55,63.57,21.55,102.4s-7.18,72.97-21.55,102.4c-14.37,29.43-35.01,52.38-61.91,68.84-26.91,16.46-59.17,24.69-96.79,24.69ZM2193.75,2184.56c25.25.17,46.28-5.4,63.09-16.72,16.8-11.32,29.43-27.25,37.88-47.81,8.44-20.55,12.67-44.58,12.67-72.1s-4.23-51.42-12.67-71.71c-8.45-20.29-21.07-36.09-37.88-47.41-16.81-11.32-37.84-17.15-63.09-17.5-25.25-.17-46.24,5.4-62.96,16.72-16.72,11.32-29.3,27.26-37.75,47.81-8.45,20.55-12.67,44.58-12.67,72.1s4.18,51.42,12.54,71.71c8.36,20.29,20.94,36.1,37.75,47.41,16.8,11.32,37.83,17.16,63.09,17.5Z"/>
    
    <path d="M2100.6,1767.62h-318.23l-126.48-310.35h-848.96c-13.48,0-26.67-.98-39.67-2.85-58.37-8.66-110.64-36.12-150.4-75.89-48.72-48.62-78.74-115.75-78.74-190.07h1009.01l-183.77-448.65-137.41,306.41h-297.75l298.74-672.08h280.72l592.95,1393.48Z"/>
    
    <polygon points="763.97 1461.97 763.97 1461.84 633.98 1766.9 944.34 1766.18 1067.15 1465.47 763.97 1461.97"/>
  </g>
</svg>