<svg xmlns="http://www.w3.org/2000/svg" viewBox="0 0 2748 2618">
  <path fill="#e5dcc3" d="M1070.82,1457.27l-19.78,48.62-106.7,261.73h-310.35l112.6-264.58,20.67-48.62c12.99,1.87,26.18,2.85,39.67,2.85h263.89Z"/>
  
  <g fill="#2a2d34">
    <path d="M1507.65,374.14h-280.72l-298.74,672.08h297.75l137.41-306.41,183.77,448.65h-1009.01c0,74.31,30.02,141.44,78.74,190.07,39.77,39.77,92.03,67.23,150.4,75.89,12.99,1.87,26.18,2.85,39.67,2.85h848.96l126.48,310.35h318.23L1507.65,374.14Z"/>
    <path d="M374,2236.02l118.6-376.18h92.22l118.6,376.18h-64.79l-107.63-337.51h14.11l-106.32,337.51h-64.79ZM440.09,2154.52v-58.78h197.49v58.78h-197.49Z"/>
    <path d="M781.78,2236.02v-376.18h62.96v317.14h166.15v59.04h-229.1Z"/>
    <path d="M1086.64,2236.02v-376.18h62.96v317.14h166.15v59.04h-229.1Z"/>
    <path d="M1429.12,2236.02l-118.6-376.18h64.79l99.27,315.05,100.58-315.05h64.79l-118.6,376.18h-92.22Z"/>
    <path d="M1642.55,2236.02l118.6-376.18h92.22l118.6,376.18h-64.79l-107.63-337.51h14.11l-106.32,337.51h-64.79ZM1708.64,2154.52v-58.78h197.49v58.78h-197.49Z"/>
    <path d="M2193.75,2243.86c-37.62,0-69.84-8.23-96.66-24.69-26.82-16.46-47.41-39.4-61.78-68.84-14.37-29.43-21.55-63.57-21.55-102.4s7.18-72.97,21.55-102.4c14.37-29.43,34.96-52.38,61.78-68.84,26.82-16.46,59.04-24.69,96.66-24.69s69.88,8.23,96.79,24.69c26.91,16.46,47.54,39.41,61.91,68.84,14.37,29.43,21.55,63.57,21.55,102.4s-7.18,72.97-21.55,102.4c-14.37,29.43-35.01,52.38-61.91,68.84-26.91,16.46-59.17,24.69-96.79,24.69ZM2193.75,2184.56c25.25.17,46.28-5.4,63.09-16.72,16.8-11.32,29.43-27.25,37.88-47.81,8.44-20.55,12.67-44.58,12.67-72.1s-4.23-51.42-12.67-71.71c-8.45-20.29-21.07-36.09-37.88-47.41-16.81-11.32-37.84-17.15-63.09-17.5-25.25-.17-46.24,5.4-62.96,16.72-16.72,11.32-29.3,27.26-37.75,47.81-8.45,20.55-12.67,44.58-12.67,72.1s4.18,51.42,12.54,71.71c8.36,20.29,20.94,36.1,37.75,47.41,16.8,11.32,37.83,17.16,63.09,17.5Z"/>
  </g>
</svg>